<svg xmlns="http://www.w3.org/2000/svg" viewBox="0 0 1695.79 959.33"><defs><style>.cls-1{isolation:isolate;}.cls-2{mix-blend-mode:overlay;}.cls-3{fill:none;}.cls-4{fill:#a5c7f9;}.cls-5{fill:#d0e2f7;}</style></defs><title>star-background</title><g class="cls-1"><g id="maru"><g class="cls-2"><rect class="cls-3" x="447.81" y="44.92" width="1.05" height="1.05"/><circle class="cls-4" cx="448.33" cy="45.44" r="0.52"/><rect class="cls-3" x="489.66" y="364.18" width="1.48" height="1.48"/><circle class="cls-4" cx="490.4" cy="364.92" r="0.74"/><rect class="cls-3" x="296.05" y="183.63" width="4.53" height="4.53"/><circle class="cls-4" cx="298.32" cy="185.89" r="2.27"/><rect class="cls-3" x="311.7" y="117.57" width="6.01" height="6.01"/><circle class="cls-4" cx="314.71" cy="120.58" r="3"/><rect class="cls-3" x="394" y="172.76" width="5.71" height="5.71"/><circle class="cls-4" cx="396.86" cy="175.62" r="2.85"/><rect class="cls-3" x="60.96" y="143.65" width="9.66" height="9.66"/><circle class="cls-4" cx="65.79" cy="148.48" r="4.83"/><rect class="cls-3" x="266.37" y="256.19" width="9.98" height="9.98"/><circle class="cls-4" cx="271.36" cy="261.18" r="4.99"/><rect class="cls-3" x="301.31" y="100.73" width="6.96" height="6.96"/><circle class="cls-4" cx="304.79" cy="104.2" r="3.48"/><rect class="cls-3" x="72.69" y="11.83" width="7.31" height="7.31"/><circle class="cls-4" cx="76.34" cy="15.48" r="3.66"/><rect class="cls-3" x="25" y="257.67" width="0.79" height="0.79"/><circle class="cls-4" cx="25.39" cy="258.06" r="0.39"/><rect class="cls-3" x="31.14" y="305.69" width="4.6" height="4.6"/><circle class="cls-4" cx="33.44" cy="307.99" r="2.3"/></g><g class="cls-2"><rect class="cls-3" x="422.81" y="514.92" width="1.05" height="1.05"/><circle class="cls-4" cx="423.33" cy="515.44" r="0.52"/><rect class="cls-3" x="464.66" y="834.18" width="1.48" height="1.48"/><circle class="cls-4" cx="465.4" cy="834.92" r="0.74"/><rect class="cls-3" x="271.05" y="653.63" width="4.53" height="4.53"/><circle class="cls-4" cx="273.32" cy="655.89" r="2.27"/><rect class="cls-3" x="286.7" y="587.57" width="6.01" height="6.01"/><circle class="cls-4" cx="289.71" cy="590.58" r="3"/><rect class="cls-3" x="369" y="642.76" width="5.71" height="5.71"/><circle class="cls-4" cx="371.86" cy="645.62" r="2.85"/><rect class="cls-3" x="35.96" y="613.65" width="9.66" height="9.66"/><circle class="cls-4" cx="40.79" cy="618.48" r="4.83"/><rect class="cls-3" x="241.37" y="726.19" width="9.98" height="9.98"/><circle class="cls-4" cx="246.36" cy="731.18" r="4.99"/><rect class="cls-3" x="276.31" y="570.73" width="6.96" height="6.96"/><circle class="cls-4" cx="279.79" cy="574.2" r="3.48"/><rect class="cls-3" x="47.69" y="481.83" width="7.31" height="7.31"/><circle class="cls-4" cx="51.34" cy="485.48" r="3.66"/><rect class="cls-3" y="727.67" width="0.79" height="0.79"/><circle class="cls-4" cx="0.39" cy="728.06" r="0.39"/><rect class="cls-3" x="6.14" y="775.69" width="4.6" height="4.6"/><circle class="cls-4" cx="8.44" cy="777.99" r="2.3"/></g><g class="cls-2"><rect class="cls-3" x="1311.81" y="273.92" width="1.05" height="1.05"/><circle class="cls-4" cx="1312.33" cy="274.44" r="0.52"/><rect class="cls-3" x="1353.66" y="593.18" width="1.48" height="1.48"/><circle class="cls-4" cx="1354.4" cy="593.92" r="0.74"/><rect class="cls-3" x="1160.05" y="412.63" width="4.53" height="4.53"/><circle class="cls-4" cx="1162.32" cy="414.89" r="2.27"/><rect class="cls-3" x="1175.7" y="346.57" width="6.01" height="6.01"/><circle class="cls-4" cx="1178.71" cy="349.58" r="3"/><rect class="cls-3" x="1258" y="401.76" width="5.71" height="5.71"/><circle class="cls-4" cx="1260.86" cy="404.62" r="2.85"/><rect class="cls-3" x="924.96" y="372.65" width="9.66" height="9.66"/><circle class="cls-4" cx="929.79" cy="377.48" r="4.83"/><rect class="cls-3" x="1130.37" y="485.19" width="9.98" height="9.98"/><circle class="cls-4" cx="1135.36" cy="490.18" r="4.99"/><rect class="cls-3" x="1165.31" y="329.73" width="6.96" height="6.96"/><circle class="cls-4" cx="1168.79" cy="333.2" r="3.48"/><rect class="cls-3" x="936.69" y="240.83" width="7.31" height="7.31"/><circle class="cls-4" cx="940.34" cy="244.48" r="3.66"/><rect class="cls-3" x="889" y="486.67" width="0.79" height="0.79"/><circle class="cls-4" cx="889.39" cy="487.06" r="0.39"/><rect class="cls-3" x="895.14" y="534.69" width="4.6" height="4.6"/><circle class="cls-4" cx="897.44" cy="536.99" r="2.3"/></g></g><g id="hoshi"><g class="cls-2"><rect class="cls-3" x="991.64" y="441.72" width="0.61" height="0.58"/><polygon class="cls-5" points="991.95 441.72 992.04 441.91 992.25 441.94 992.1 442.09 992.14 442.3 991.95 442.2 991.76 442.3 991.79 442.09 991.64 441.94 991.85 441.91 991.95 441.72"/><rect class="cls-3" x="828.77" y="418.56" width="9.97" height="9.48"/><polygon class="cls-5" points="833.76 418.56 835.3 421.68 838.74 422.18 836.25 424.61 836.84 428.04 833.76 426.42 830.68 428.04 831.26 424.61 828.77 422.18 832.22 421.68 833.76 418.56"/><rect class="cls-3" x="763.9" y="323.13" width="6.39" height="6.08"/><polygon class="cls-5" points="767.1 323.13 768.08 325.13 770.29 325.45 768.7 327.01 769.07 329.21 767.1 328.17 765.12 329.21 765.5 327.01 763.9 325.45 766.11 325.13 767.1 323.13"/><rect class="cls-3" x="701.58" y="292.63" width="7.25" height="6.89"/><polygon class="cls-5" points="705.2 292.63 706.32 294.89 708.83 295.26 707.01 297.03 707.44 299.52 705.2 298.34 702.96 299.52 703.39 297.03 701.58 295.26 704.08 294.89 705.2 292.63"/><rect class="cls-3" x="606.85" y="277.51" width="5.91" height="5.62"/><polygon class="cls-5" points="609.8 277.51 610.72 279.36 612.76 279.66 611.28 281.1 611.63 283.13 609.8 282.17 607.98 283.13 608.33 281.1 606.85 279.66 608.89 279.36 609.8 277.51"/><rect class="cls-3" x="486.74" y="261" width="3.07" height="2.92"/><polygon class="cls-5" points="488.27 261 488.75 261.96 489.81 262.12 489.04 262.86 489.22 263.92 488.27 263.42 487.32 263.92 487.51 262.86 486.74 262.12 487.8 261.96 488.27 261"/><rect class="cls-3" x="378.81" y="515.06" width="2.19" height="2.08"/><polygon class="cls-5" points="379.9 515.06 380.24 515.75 381 515.86 380.45 516.39 380.58 517.14 379.9 516.79 379.23 517.14 379.36 516.39 378.81 515.86 379.57 515.75 379.9 515.06"/><rect class="cls-3" x="532.86" y="548.51" width="4.93" height="4.69"/><polygon class="cls-5" points="535.33 548.51 536.09 550.06 537.79 550.31 536.56 551.51 536.85 553.21 535.33 552.4 533.8 553.21 534.09 551.51 532.86 550.31 534.57 550.06 535.33 548.51"/><rect class="cls-3" x="619.23" y="597.95" width="1.29" height="1.22"/><polygon class="cls-5" points="619.88 597.95 620.07 598.36 620.52 598.42 620.2 598.73 620.27 599.18 619.88 598.97 619.48 599.18 619.55 598.73 619.23 598.42 619.68 598.36 619.88 597.95"/><rect class="cls-3" x="672.28" y="662.81" width="3.75" height="3.57"/><polygon class="cls-5" points="674.15 662.81 674.73 663.99 676.03 664.17 675.09 665.09 675.31 666.38 674.15 665.77 672.99 666.38 673.21 665.09 672.27 664.17 673.57 663.99 674.15 662.81"/><rect class="cls-3" x="709.1" y="773.11" width="3.58" height="3.4"/><polygon class="cls-5" points="710.88 773.11 711.44 774.23 712.67 774.41 711.78 775.28 711.99 776.51 710.88 775.93 709.78 776.51 709.99 775.28 709.1 774.41 710.33 774.23 710.88 773.11"/><rect class="cls-3" x="762.72" y="736.56" width="0.96" height="0.91"/><polygon class="cls-5" points="763.2 736.56 763.35 736.86 763.68 736.9 763.44 737.14 763.5 737.47 763.2 737.31 762.91 737.47 762.96 737.14 762.73 736.9 763.05 736.86 763.2 736.56"/><rect class="cls-3" x="856.11" y="609.27" width="4.58" height="4.35"/><polygon class="cls-5" points="858.4 609.27 859.11 610.7 860.69 610.93 859.54 612.05 859.82 613.62 858.4 612.88 856.99 613.62 857.26 612.05 856.11 610.93 857.69 610.7 858.4 609.27"/><rect class="cls-3" x="752.32" y="569.13" width="3.74" height="3.56"/><polygon class="cls-5" points="754.19 569.13 754.77 570.3 756.06 570.49 755.12 571.4 755.35 572.69 754.19 572.08 753.03 572.69 753.25 571.4 752.32 570.49 753.61 570.3 754.19 569.13"/><rect class="cls-3" x="678.39" y="529.37" width="8.62" height="8.2"/><polygon class="cls-5" points="682.7 529.37 684.03 532.07 687.01 532.5 684.86 534.61 685.36 537.57 682.7 536.17 680.03 537.57 680.54 534.61 678.39 532.5 681.37 532.07 682.7 529.37"/><rect class="cls-3" x="594.17" y="546.38" width="9.58" height="9.11"/><polygon class="cls-5" points="598.96 546.38 600.44 549.38 603.75 549.87 601.36 552.2 601.92 555.5 598.96 553.94 596 555.5 596.57 552.2 594.17 549.87 597.48 549.38 598.96 546.38"/><rect class="cls-3" x="500.61" y="452.11" width="5.34" height="5.08"/><polygon class="cls-5" points="503.29 452.11 504.11 453.79 505.96 454.06 504.62 455.36 504.94 457.2 503.29 456.33 501.63 457.2 501.95 455.36 500.61 454.06 502.46 453.79 503.29 452.11"/><rect class="cls-3" x="428.17" y="480.54" width="9.46" height="9"/><polygon class="cls-5" points="432.9 480.54 434.36 483.5 437.63 483.98 435.27 486.29 435.82 489.54 432.9 488 429.98 489.54 430.54 486.29 428.17 483.98 431.44 483.5 432.9 480.54"/><rect class="cls-3" x="356.13" y="401.42" width="5.62" height="5.35"/><polygon class="cls-5" points="358.94 401.42 359.81 403.18 361.75 403.46 360.34 404.83 360.67 406.76 358.94 405.85 357.2 406.76 357.53 404.83 356.13 403.46 358.07 403.18 358.94 401.42"/><rect class="cls-3" x="228.73" y="360.08" width="9.7" height="9.23"/><polygon class="cls-5" points="233.58 360.08 235.08 363.12 238.43 363.61 236.01 365.97 236.58 369.31 233.58 367.74 230.58 369.31 231.16 365.97 228.73 363.61 232.08 363.12 233.58 360.08"/><rect class="cls-3" x="85.09" y="606.64" width="5" height="4.75"/><polygon class="cls-5" points="87.59 606.64 88.36 608.2 90.09 608.45 88.84 609.67 89.14 611.39 87.59 610.58 86.05 611.39 86.34 609.67 85.09 608.45 86.82 608.2 87.59 606.64"/><rect class="cls-3" x="195.35" y="680.14" width="8.28" height="7.87"/><polygon class="cls-5" points="199.49 680.14 200.77 682.73 203.63 683.14 201.56 685.16 202.05 688.01 199.49 686.66 196.93 688.01 197.42 685.16 195.35 683.14 198.21 682.73 199.49 680.14"/><rect class="cls-3" x="331.78" y="724.17" width="5.6" height="5.33"/><polygon class="cls-5" points="334.58 724.17 335.45 725.92 337.39 726.2 335.99 727.57 336.32 729.5 334.58 728.58 332.85 729.5 333.18 727.57 331.78 726.2 333.72 725.92 334.58 724.17"/><rect class="cls-3" x="457.87" y="723.23" width="3.84" height="3.65"/><polygon class="cls-5" points="459.79 723.23 460.39 724.43 461.71 724.62 460.75 725.56 460.98 726.88 459.79 726.25 458.61 726.88 458.83 725.56 457.87 724.62 459.2 724.43 459.79 723.23"/><rect class="cls-3" x="551.33" y="836.19" width="0.71" height="0.68"/><polygon class="cls-5" points="551.69 836.19 551.8 836.42 552.04 836.45 551.87 836.63 551.91 836.87 551.69 836.76 551.47 836.87 551.51 836.63 551.33 836.45 551.58 836.42 551.69 836.19"/><rect class="cls-3" x="668.61" y="830.44" width="5.16" height="4.91"/><polygon class="cls-5" points="671.19 830.44 671.98 832.05 673.77 832.31 672.48 833.57 672.78 835.35 671.19 834.51 669.59 835.35 669.9 833.57 668.61 832.31 670.39 832.05 671.19 830.44"/><rect class="cls-3" x="740.94" y="903.96" width="3.73" height="3.55"/><polygon class="cls-5" points="742.8 903.96 743.38 905.13 744.67 905.31 743.74 906.22 743.96 907.51 742.8 906.9 741.65 907.51 741.87 906.22 740.94 905.31 742.23 905.13 742.8 903.96"/><rect class="cls-3" x="822.07" y="951.72" width="8" height="7.61"/><polygon class="cls-5" points="826.07 951.72 827.31 954.23 830.08 954.63 828.07 956.58 828.55 959.33 826.07 958.03 823.6 959.33 824.07 956.58 822.07 954.63 824.84 954.23 826.07 951.72"/></g><g class="cls-2"><rect class="cls-3" x="1694.48" y="421.35" width="1.31" height="1.25"/><polygon class="cls-5" points="1695.14 421.35 1695.34 421.76 1695.79 421.82 1695.46 422.14 1695.54 422.6 1695.14 422.38 1694.73 422.6 1694.81 422.14 1694.48 421.82 1694.93 421.76 1695.14 421.35"/><rect class="cls-3" x="1625.32" y="371.76" width="8.34" height="7.93"/><polygon class="cls-5" points="1629.49 371.76 1630.78 374.38 1633.66 374.79 1631.57 376.83 1632.07 379.69 1629.49 378.34 1626.91 379.69 1627.4 376.83 1625.32 374.79 1628.2 374.38 1629.49 371.76"/><rect class="cls-3" x="1578.78" y="337.53" width="4.79" height="4.55"/><polygon class="cls-5" points="1581.17 337.53 1581.91 339.02 1583.57 339.26 1582.37 340.43 1582.65 342.08 1581.17 341.3 1579.69 342.08 1579.98 340.43 1578.78 339.26 1580.43 339.02 1581.17 337.53"/><rect class="cls-3" x="1501.18" y="375.97" width="6.59" height="6.27"/><polygon class="cls-5" points="1504.48 375.97 1505.5 378.03 1507.78 378.36 1506.13 379.97 1506.52 382.24 1504.48 381.17 1502.44 382.24 1502.83 379.97 1501.18 378.36 1503.46 378.03 1504.48 375.97"/><rect class="cls-3" x="1393.35" y="270.53" width="4.42" height="4.2"/><polygon class="cls-5" points="1395.56 270.53 1396.24 271.92 1397.77 272.14 1396.66 273.21 1396.93 274.73 1395.56 274.02 1394.2 274.73 1394.46 273.21 1393.35 272.14 1394.88 271.92 1395.56 270.53"/><rect class="cls-3" x="1313.07" y="308.68" width="4.69" height="4.46"/><polygon class="cls-5" points="1315.42 308.68 1316.14 310.15 1317.77 310.38 1316.59 311.53 1316.87 313.14 1315.42 312.38 1313.97 313.14 1314.25 311.53 1313.07 310.38 1314.69 310.15 1315.42 308.68"/><rect class="cls-3" x="1198.9" y="253.34" width="1.03" height="0.98"/><polygon class="cls-5" points="1199.41 253.34 1199.57 253.66 1199.92 253.71 1199.67 253.96 1199.73 254.31 1199.41 254.15 1199.09 254.31 1199.15 253.96 1198.89 253.71 1199.25 253.66 1199.41 253.34"/><rect class="cls-3" x="1038.79" y="249.56" width="8.97" height="8.53"/><polygon class="cls-5" points="1043.27 249.56 1044.66 252.37 1047.76 252.82 1045.51 255 1046.04 258.09 1043.27 256.63 1040.5 258.09 1041.03 255 1038.79 252.82 1041.89 252.37 1043.27 249.56"/><rect class="cls-3" x="881.19" y="236.42" width="0.61" height="0.58"/><polygon class="cls-5" points="881.5 236.42 881.59 236.61 881.81 236.64 881.65 236.79 881.69 237 881.5 236.9 881.31 237 881.35 236.79 881.19 236.64 881.4 236.61 881.5 236.42"/><rect class="cls-3" x="1020.24" y="459.62" width="9.97" height="9.48"/><polygon class="cls-5" points="1025.22 459.62 1026.76 462.74 1030.2 463.24 1027.71 465.67 1028.3 469.1 1025.22 467.48 1022.14 469.1 1022.73 465.67 1020.24 463.24 1023.68 462.74 1025.22 459.62"/><rect class="cls-3" x="1079.97" y="563.94" width="6.39" height="6.08"/><polygon class="cls-5" points="1083.16 563.94 1084.15 565.94 1086.36 566.26 1084.76 567.82 1085.14 570.01 1083.16 568.98 1081.19 570.01 1081.57 567.82 1079.97 566.26 1082.18 565.94 1083.16 563.94"/><rect class="cls-3" x="1138.72" y="598.66" width="7.25" height="6.89"/><polygon class="cls-5" points="1142.35 598.66 1143.47 600.93 1145.97 601.29 1144.16 603.06 1144.59 605.55 1142.35 604.37 1140.11 605.55 1140.54 603.06 1138.72 601.29 1141.23 600.93 1142.35 598.66"/><rect class="cls-3" x="1222.79" y="621.76" width="5.91" height="5.62"/><polygon class="cls-5" points="1225.74 621.76 1226.66 623.62 1228.7 623.91 1227.22 625.35 1227.57 627.39 1225.74 626.43 1223.92 627.39 1224.27 625.35 1222.79 623.91 1224.83 623.62 1225.74 621.76"/><rect class="cls-3" x="1319.19" y="663.41" width="3.07" height="2.92"/><polygon class="cls-5" points="1320.73 663.41 1321.2 664.37 1322.27 664.53 1321.5 665.28 1321.68 666.33 1320.73 665.83 1319.78 666.33 1319.96 665.28 1319.19 664.53 1320.26 664.37 1320.73 663.41"/><rect class="cls-3" x="1391.02" y="739.42" width="2.19" height="2.08"/><polygon class="cls-5" points="1392.12 739.42 1392.45 740.1 1393.21 740.21 1392.66 740.74 1392.79 741.5 1392.12 741.14 1391.44 741.5 1391.57 740.74 1391.02 740.21 1391.78 740.1 1392.12 739.42"/><rect class="cls-3" x="1450.87" y="622.2" width="4.93" height="4.69"/><polygon class="cls-5" points="1453.34 622.2 1454.1 623.75 1455.8 623.99 1454.57 625.2 1454.86 626.89 1453.34 626.09 1451.81 626.89 1452.1 625.2 1450.87 623.99 1452.57 623.75 1453.34 622.2"/><rect class="cls-3" x="1358.85" y="607.02" width="1.29" height="1.22"/><polygon class="cls-5" points="1359.49 607.02 1359.69 607.42 1360.14 607.49 1359.82 607.8 1359.89 608.24 1359.49 608.03 1359.1 608.24 1359.17 607.8 1358.85 607.49 1359.3 607.42 1359.49 607.02"/><rect class="cls-3" x="1285.84" y="559.43" width="3.75" height="3.57"/><polygon class="cls-5" points="1287.72 559.43 1288.3 560.61 1289.6 560.8 1288.66 561.71 1288.88 563 1287.72 562.39 1286.56 563 1286.78 561.71 1285.84 560.8 1287.14 560.61 1287.72 559.43"/><rect class="cls-3" x="1201.57" y="463.86" width="3.58" height="3.4"/><polygon class="cls-5" points="1203.35 463.86 1203.91 464.98 1205.14 465.16 1204.25 466.04 1204.46 467.27 1203.35 466.69 1202.25 467.27 1202.46 466.04 1201.57 465.16 1202.8 464.98 1203.35 463.86"/><rect class="cls-3" x="1134.18" y="512.1" width="0.96" height="0.91"/><polygon class="cls-5" points="1134.66 512.1 1134.81 512.4 1135.14 512.45 1134.9 512.68 1134.96 513.01 1134.66 512.85 1134.37 513.01 1134.42 512.68 1134.18 512.45 1134.51 512.4 1134.66 512.1"/><rect class="cls-3" x="1094.88" y="454.13" width="4.58" height="4.35"/><polygon class="cls-5" points="1097.17 454.13 1097.88 455.56 1099.46 455.79 1098.31 456.91 1098.58 458.48 1097.17 457.74 1095.75 458.48 1096.02 456.91 1094.88 455.79 1096.46 455.56 1097.17 454.13"/><rect class="cls-3" x="989.42" y="418.57" width="3.74" height="3.56"/><polygon class="cls-5" points="991.29 418.57 991.87 419.74 993.16 419.93 992.22 420.84 992.45 422.13 991.29 421.52 990.13 422.13 990.35 420.84 989.42 419.93 990.71 419.74 991.29 418.57"/><rect class="cls-3" x="903.8" y="383.42" width="8.62" height="8.2"/><polygon class="cls-5" points="908.12 383.43 909.45 386.12 912.43 386.56 910.27 388.66 910.78 391.63 908.12 390.23 905.45 391.63 905.96 388.66 903.8 386.56 906.78 386.12 908.12 383.43"/><rect class="cls-3" x="821.81" y="409.78" width="9.58" height="9.11"/><polygon class="cls-5" points="826.6 409.78 828.08 412.78 831.39 413.26 829 415.6 829.56 418.9 826.6 417.34 823.64 418.9 824.21 415.6 821.81 413.26 825.12 412.78 826.6 409.78"/><rect class="cls-3" x="709.92" y="329.8" width="5.34" height="5.08"/><polygon class="cls-5" points="712.59 329.8 713.42 331.48 715.26 331.75 713.93 333.05 714.24 334.89 712.59 334.02 710.94 334.89 711.26 333.05 709.92 331.75 711.77 331.48 712.59 329.8"/><rect class="cls-3" x="646.41" y="369.09" width="9.46" height="9"/><polygon class="cls-5" points="651.14 369.09 652.6 372.06 655.87 372.53 653.51 374.84 654.07 378.09 651.14 376.55 648.22 378.09 648.78 374.84 646.41 372.53 649.68 372.06 651.14 369.09"/><rect class="cls-3" x="543.97" y="585.67" width="5.62" height="5.35"/><polygon class="cls-5" points="546.78 585.67 547.65 587.43 549.6 587.71 548.19 589.08 548.52 591.01 546.78 590.1 545.05 591.01 545.38 589.08 543.97 587.71 545.92 587.43 546.78 585.67"/><rect class="cls-3" x="653.64" y="633.37" width="9.7" height="9.23"/><polygon class="cls-5" points="658.49 633.37 659.99 636.41 663.34 636.89 660.92 639.26 661.49 642.6 658.49 641.02 655.49 642.6 656.07 639.26 653.64 636.89 656.99 636.41 658.49 633.37"/><rect class="cls-3" x="750.28" y="666.55" width="5" height="4.75"/><polygon class="cls-5" points="752.77 666.55 753.55 668.11 755.27 668.36 754.02 669.58 754.32 671.3 752.77 670.49 751.23 671.3 751.52 669.58 750.27 668.36 752 668.11 752.77 666.55"/><rect class="cls-3" x="869.91" y="723.7" width="8.28" height="7.87"/><polygon class="cls-5" points="874.05 723.7 875.33 726.29 878.19 726.71 876.12 728.73 876.61 731.58 874.05 730.23 871.49 731.58 871.98 728.73 869.91 726.71 872.77 726.29 874.05 723.7"/><rect class="cls-3" x="1007.76" y="750.84" width="5.6" height="5.33"/><polygon class="cls-5" points="1010.56 750.84 1011.42 752.59 1013.36 752.87 1011.96 754.24 1012.29 756.17 1010.56 755.26 1008.83 756.17 1009.16 754.24 1007.76 752.87 1009.69 752.59 1010.56 750.84"/><rect class="cls-3" x="1130.2" y="736.26" width="3.84" height="3.65"/><polygon class="cls-5" points="1132.12 736.26 1132.71 737.46 1134.04 737.65 1133.08 738.59 1133.31 739.91 1132.12 739.29 1130.93 739.91 1131.16 738.59 1130.2 737.65 1131.53 737.46 1132.12 736.26"/><rect class="cls-3" x="1230.66" y="839.24" width="0.71" height="0.68"/><polygon class="cls-5" points="1231.02 839.24 1231.13 839.46 1231.38 839.5 1231.2 839.67 1231.24 839.92 1231.02 839.8 1230.8 839.92 1230.84 839.67 1230.66 839.5 1230.91 839.46 1231.02 839.24"/><rect class="cls-3" x="1346.16" y="824.15" width="5.16" height="4.91"/><polygon class="cls-5" points="1348.74 824.14 1349.54 825.76 1351.32 826.02 1350.03 827.28 1350.34 829.05 1348.74 828.22 1347.15 829.05 1347.45 827.28 1346.16 826.02 1347.95 825.76 1348.74 824.14"/><rect class="cls-3" x="1428.4" y="893.76" width="3.73" height="3.55"/><polygon class="cls-5" points="1430.27 893.76 1430.84 894.93 1432.13 895.11 1431.2 896.02 1431.42 897.31 1430.27 896.7 1429.11 897.31 1429.33 896.02 1428.4 895.11 1429.69 894.93 1430.27 893.76"/><rect class="cls-3" x="1514.87" y="934.17" width="8" height="7.61"/><polygon class="cls-5" points="1518.87 934.17 1520.11 936.67 1522.87 937.08 1520.87 939.03 1521.35 941.78 1518.87 940.48 1516.4 941.78 1516.87 939.03 1514.87 937.08 1517.63 936.67 1518.87 934.17"/></g><g class="cls-2"><rect class="cls-3" x="1027.64" y="180.72" width="0.61" height="0.58"/><polygon class="cls-5" points="1027.95 180.72 1028.04 180.91 1028.25 180.94 1028.1 181.09 1028.14 181.3 1027.95 181.21 1027.76 181.3 1027.79 181.09 1027.64 180.94 1027.85 180.91 1027.95 180.72"/><rect class="cls-3" x="864.77" y="157.56" width="9.97" height="9.48"/><polygon class="cls-5" points="869.76 157.56 871.3 160.68 874.74 161.18 872.25 163.61 872.84 167.04 869.76 165.42 866.68 167.04 867.26 163.61 864.77 161.18 868.22 160.68 869.76 157.56"/><rect class="cls-3" x="799.9" y="62.13" width="6.39" height="6.08"/><polygon class="cls-5" points="803.1 62.13 804.08 64.13 806.29 64.45 804.7 66.01 805.07 68.21 803.1 67.17 801.12 68.21 801.5 66.01 799.9 64.45 802.11 64.13 803.1 62.13"/><rect class="cls-3" x="737.58" y="31.63" width="7.25" height="6.89"/><polygon class="cls-5" points="741.2 31.63 742.32 33.9 744.83 34.26 743.01 36.03 743.44 38.52 741.2 37.34 738.96 38.52 739.39 36.03 737.58 34.26 740.08 33.9 741.2 31.63"/><rect class="cls-3" x="642.85" y="16.51" width="5.91" height="5.62"/><polygon class="cls-5" points="645.8 16.51 646.72 18.36 648.76 18.66 647.28 20.1 647.63 22.13 645.8 21.17 643.98 22.13 644.33 20.1 642.85 18.66 644.89 18.36 645.8 16.51"/><rect class="cls-3" x="522.74" width="3.07" height="2.92"/><polygon class="cls-5" points="524.27 0 524.75 0.96 525.81 1.11 525.04 1.86 525.22 2.92 524.27 2.42 523.33 2.92 523.51 1.86 522.74 1.11 523.8 0.96 524.27 0"/><rect class="cls-3" x="414.81" y="254.06" width="2.19" height="2.08"/><polygon class="cls-5" points="415.9 254.06 416.24 254.75 417 254.86 416.45 255.39 416.58 256.14 415.9 255.79 415.23 256.14 415.36 255.39 414.81 254.86 415.57 254.75 415.9 254.06"/><rect class="cls-3" x="568.86" y="287.51" width="4.93" height="4.69"/><polygon class="cls-5" points="571.33 287.51 572.09 289.06 573.79 289.31 572.56 290.51 572.85 292.21 571.33 291.4 569.8 292.21 570.09 290.51 568.86 289.31 570.57 289.06 571.33 287.51"/><rect class="cls-3" x="655.23" y="336.95" width="1.29" height="1.22"/><polygon class="cls-5" points="655.88 336.95 656.07 337.36 656.52 337.42 656.2 337.73 656.27 338.18 655.88 337.97 655.48 338.18 655.55 337.73 655.23 337.42 655.68 337.36 655.88 336.95"/><rect class="cls-3" x="708.28" y="401.81" width="3.75" height="3.57"/><polygon class="cls-5" points="710.15 401.81 710.73 402.99 712.03 403.17 711.09 404.09 711.31 405.38 710.15 404.77 708.99 405.38 709.21 404.09 708.27 403.17 709.57 402.99 710.15 401.81"/><rect class="cls-3" x="745.1" y="512.11" width="3.58" height="3.4"/><polygon class="cls-5" points="746.88 512.11 747.44 513.23 748.67 513.41 747.78 514.28 747.99 515.51 746.88 514.93 745.78 515.51 745.99 514.28 745.1 513.41 746.33 513.23 746.88 512.11"/><rect class="cls-3" x="798.72" y="475.56" width="0.96" height="0.91"/><polygon class="cls-5" points="799.2 475.56 799.35 475.86 799.68 475.9 799.44 476.14 799.5 476.47 799.2 476.31 798.91 476.47 798.96 476.14 798.73 475.9 799.05 475.86 799.2 475.56"/><rect class="cls-3" x="892.11" y="348.27" width="4.58" height="4.35"/><polygon class="cls-5" points="894.4 348.27 895.11 349.7 896.69 349.93 895.54 351.05 895.82 352.62 894.4 351.88 892.99 352.62 893.26 351.05 892.11 349.93 893.69 349.7 894.4 348.27"/><rect class="cls-3" x="788.32" y="308.13" width="3.74" height="3.56"/><polygon class="cls-5" points="790.19 308.13 790.77 309.3 792.06 309.49 791.12 310.4 791.35 311.69 790.19 311.08 789.03 311.69 789.25 310.4 788.32 309.49 789.61 309.3 790.19 308.13"/><rect class="cls-3" x="714.39" y="268.37" width="8.62" height="8.2"/><polygon class="cls-5" points="718.7 268.37 720.03 271.07 723.01 271.5 720.86 273.61 721.36 276.57 718.7 275.17 716.03 276.57 716.54 273.61 714.39 271.5 717.37 271.07 718.7 268.37"/><rect class="cls-3" x="630.17" y="285.38" width="9.58" height="9.11"/><polygon class="cls-5" points="634.96 285.38 636.44 288.38 639.75 288.87 637.36 291.2 637.92 294.5 634.96 292.94 632 294.5 632.57 291.2 630.17 288.87 633.48 288.38 634.96 285.38"/><rect class="cls-3" x="536.61" y="191.11" width="5.34" height="5.08"/><polygon class="cls-5" points="539.28 191.11 540.11 192.79 541.96 193.06 540.62 194.36 540.94 196.2 539.28 195.33 537.63 196.2 537.95 194.36 536.61 193.06 538.46 192.79 539.28 191.11"/><rect class="cls-3" x="464.17" y="219.54" width="9.46" height="9"/><polygon class="cls-5" points="468.9 219.54 470.36 222.5 473.63 222.98 471.27 225.28 471.82 228.54 468.9 227 465.98 228.54 466.54 225.28 464.17 222.98 467.44 222.5 468.9 219.54"/><rect class="cls-3" x="392.13" y="140.42" width="5.62" height="5.35"/><polygon class="cls-5" points="394.94 140.42 395.81 142.18 397.75 142.46 396.34 143.83 396.67 145.76 394.94 144.85 393.2 145.76 393.53 143.83 392.13 142.46 394.07 142.18 394.94 140.42"/><rect class="cls-3" x="264.73" y="99.08" width="9.7" height="9.23"/><polygon class="cls-5" points="269.58 99.08 271.08 102.12 274.43 102.61 272.01 104.97 272.58 108.31 269.58 106.74 266.58 108.31 267.16 104.97 264.73 102.61 268.08 102.12 269.58 99.08"/><rect class="cls-3" x="121.09" y="345.64" width="5" height="4.75"/><polygon class="cls-5" points="123.59 345.64 124.36 347.2 126.09 347.45 124.84 348.67 125.14 350.39 123.59 349.58 122.05 350.39 122.34 348.67 121.09 347.45 122.82 347.2 123.59 345.64"/><rect class="cls-3" x="231.35" y="419.14" width="8.28" height="7.87"/><polygon class="cls-5" points="235.49 419.14 236.77 421.73 239.63 422.14 237.56 424.16 238.05 427.01 235.49 425.66 232.93 427.01 233.42 424.16 231.35 422.14 234.21 421.73 235.49 419.14"/><rect class="cls-3" x="367.78" y="463.17" width="5.6" height="5.33"/><polygon class="cls-5" points="370.58 463.17 371.45 464.92 373.39 465.2 371.99 466.57 372.32 468.5 370.58 467.58 368.85 468.5 369.18 466.57 367.78 465.2 369.72 464.92 370.58 463.17"/><rect class="cls-3" x="493.87" y="462.23" width="3.84" height="3.65"/><polygon class="cls-5" points="495.79 462.23 496.39 463.43 497.71 463.62 496.75 464.56 496.98 465.88 495.79 465.25 494.61 465.88 494.83 464.56 493.87 463.62 495.2 463.43 495.79 462.23"/><rect class="cls-3" x="587.33" y="575.19" width="0.71" height="0.68"/><polygon class="cls-5" points="587.69 575.19 587.8 575.42 588.04 575.45 587.87 575.63 587.91 575.87 587.69 575.76 587.47 575.87 587.51 575.63 587.33 575.45 587.58 575.42 587.69 575.19"/><rect class="cls-3" x="704.61" y="569.44" width="5.16" height="4.91"/><polygon class="cls-5" points="707.19 569.44 707.98 571.05 709.77 571.31 708.48 572.57 708.78 574.35 707.19 573.51 705.59 574.35 705.9 572.57 704.61 571.31 706.39 571.05 707.19 569.44"/><rect class="cls-3" x="776.94" y="642.96" width="3.73" height="3.55"/><polygon class="cls-5" points="778.8 642.96 779.38 644.13 780.67 644.31 779.74 645.22 779.96 646.51 778.8 645.9 777.65 646.51 777.87 645.22 776.94 644.31 778.23 644.13 778.8 642.96"/><rect class="cls-3" x="858.07" y="690.72" width="8" height="7.61"/><polygon class="cls-5" points="862.07 690.72 863.31 693.23 866.08 693.63 864.07 695.58 864.55 698.33 862.07 697.03 859.6 698.33 860.07 695.58 858.07 693.63 860.84 693.23 862.07 690.72"/></g></g></g></svg>